<svg xmlns="http://www.w3.org/2000/svg" xml:space="preserve" width="48px" height="48px" version="1.1" shape-rendering="geometricPrecision" text-rendering="geometricPrecision" image-rendering="optimizeQuality" fill-rule="evenodd" clip-rule="evenodd"
viewBox="0 0 48 48">
	<polygon fill="black" points="2,41 46,41 46,7 2,7"/>
	<path fill="white" d="M5 38l38 0 0 -28 -38 0 0 28zm25 -15l5 0 0 1 -5 6 0 4 9 0 0 -3 -5 0 0 -1 5 -6 0 -4 -9 0 0 3zm-21 11l18 0 0 -20 -18 0 0 20zm4 -14l7 0 -4 4 0 7 4 0 0 -7 4 -3 0 -4 -11 0 0 3z"/>
</svg>
