<svg xmlns="http://www.w3.org/2000/svg" xml:space="preserve" width="256px" height="256px" version="1.1" shape-rendering="geometricPrecision" text-rendering="geometricPrecision" image-rendering="optimizeQuality" fill-rule="evenodd" clip-rule="evenodd"
viewBox="0 0 256 256">
	<polygon fill="white" points="0,256 256,256 256,0 0,0"/>
	<path fill="#0077D7" d="M256 256l0 -256 -256 0 0 256 256 0zm-128 -205c4.65,0 9.2,0.41 13.6,1.2l9.85 -23.8c0.85,-2.05 3.2,-3 5.25,-2.15l23 9.5c2,0.85 3,3.1 2.15,5.2l-9.85 23.8c7.5,5.2 14,11.75 19.25,19.25l23.8 -9.85c2,-0.85 4.4,0.15 5.25,2.15l9.5 23c0.85,2 -0.15,4.4 -2.15,5.25l-23.8 9.85c0.8,4.40 1.2,9 1.2,13.6 0,4.65 -0.4,9.2 -1.2,13.6l23.8 9.85c2,0.85 3,3.2 2.15,5.25l-9.5 23c-0.85,2 -3.2,3 -5.25,2.2l-23.81 -9.9c-5.20,7.5 -11.75,14 -19.25,19.25l9.85 23.81c0.85,2 -0.15,4.4 -2.15,5.25l-23 9.5c-2,0.85 -4.4,-0.15 -5.2,-2.2l-9.85 -23.8c-4.4,0.8 -9,1.2 -13.6,1.2 -4.65,0 -9.2,-0.4 -13.6,-1.2l-9.85 23.8c-0.85,2 -3.2,3 -5.25,2.15l-23 -9.5c-2,-0.85 -3,-3.2 -2.2,-5.2l9.85 -23.8c-7.5,-5.2 -14,-11.75 -19.25,-19.25l-23.8 9.85c-2,0.85 -4.4,-0.15 -5.25,-2.15l-9.5 -23c-0.85,-2 0.15,-4.4 2.15,-5.25l23.8 -9.85c-0.8,-4.4 -1.2,-9 -1.2,-13.6 0,-4.65 0.4,-9.2 1.2,-13.61l-23.8 -9.85c-2,-0.85 -3,-3.2 -2.15,-5.25l9.5 -23c0.85,-2 3.2,-3 5.25,-2.15l23.8 9.85c5.2,-7.5 11.75,-14 19.25,-19.25l-9.9 -23.8c-0.85,-2 0.15,-4.4 2.2,-5.2l23 -9.5c2,-0.85 4.4,0.15 5.2,2.15l9.85 23.8c4.4,-0.8 9,-1.2 13.6,-1.2zm-51 80.25l0 0.05 0 0 -0 -0.05z"/>
	<circle fill="#0077D7" cx="128" cy="128" r="51"/>
</svg>
