<svg xmlns="http://www.w3.org/2000/svg" xml:space="preserve" width="256px" height="256px" version="1.1" shape-rendering="geometricPrecision" text-rendering="geometricPrecision" image-rendering="optimizeQuality" fill-rule="evenodd" clip-rule="evenodd"
viewBox="0 0 256 256">
	<polygon fill="white" stroke="#A7A5A6" stroke-width="3" stroke-miterlimit="2.6" points="57.5,18.5 174.5,18.5 222.5,66.5 222.5,236.5 57.5,236.5"/>
	<polygon fill="#85BE9F" points="167,219 203,219 203,201 167,201"/>
	<polygon fill="#85BE9F" points="122,219 158,219 158,201 122,201"/>
	<polygon fill="#989898" points="77,219 113,219 113,201 77,201"/>
	<polygon fill="#85BE9F" points="167,192 203,192 203,174 167,174"/>
	<polygon fill="#85BE9F" points="122,192 158,192 158,174 122,174"/>
	<polygon fill="#989898" points="77,192 113,192 113,174 77,174"/>
	<polygon fill="#85BE9F" points="167,165 203,165 203,147 167,147"/>
	<polygon fill="#85BE9F" points="122,165 158,165 158,147 122,147"/>
	<polygon fill="#989898" points="77,165 113,165 113,147 77,147"/>
	<polygon fill="#85BE9F" points="167,138 203,138 203,120 167,120"/>
	<polygon fill="#85BE9F" points="122,138 158,138 158,120 122,120"/>
	<polygon fill="#989898" points="77,138 113,138 113,120 77,120"/>
	<polygon fill="#85BE9F" points="167,111 203,111 203,93 167,93"/>
	<polygon fill="#85BE9F" points="122,111 158,111 158,93 122,93"/>
	<polygon fill="#989898" points="77,111 113,111 113,93 77,93"/>
	<polygon fill="#85BE9F" points="203,66 167,66 167,84 203,84"/>
	<polygon fill="#85BE9F" points="122,84 158,84 158,66 122,66"/>
	<polygon fill="#989898" points="77,84 113,84 113,66 77,66"/>
	<polygon fill="#989898" points="167,57 193,57 193,39 167,39"/>
	<polygon fill="#989898" points="122,57 158,57 158,39 122,39"/>
	<polygon fill="#989898" points="77,57 113,57 113,39 77,39"/>
	<polygon fill="#515253" fill-opacity="0.5" points="221,69 221,66 175,66 175,20 172,20 172,69 172,69 172,69"/>
	<path fill="white" fill-rule="nonzero" d="M175 21l44.85 45 -44.85 0 0 -45zm22.4 22.5m0 22.5m-22.4 -22.5"/>
	<polygon fill="#1F7246" points="31,97 120,86 120,214 31,203"/>
	<polygon fill="white" points="60.6,129 70.5,150 60,171 68.8,171 75.51,154.25 82.2,171 90.95,171 81,150 90.95,129 82.5,129 75.8,145.45 70.35,129"/>
</svg>